<?xml version="1.0" encoding="UTF-8"?>
<svg xmlns="http://www.w3.org/2000/svg" version="1.1" xmlns:xlink="http://www.w3.org/1999/xlink" viewBox="0 0 1614.73 597.98">
  <!-- Generator: Adobe Illustrator 29.7.1, SVG Export Plug-In . SVG Version: 2.1.1 Build 8)  -->
  <defs>
    <style>
      .st0 {
        fill: url(#linear-gradient2);
      }

      .st1 {
        clip-path: url(#clippath-6);
      }

      .st2 {
        clip-path: url(#clippath-7);
      }

      .st3 {
        clip-path: url(#clippath-4);
      }

      .st4 {
        fill: url(#linear-gradient10);
      }

      .st5 {
        mask: url(#mask-1);
      }

      .st6 {
        clip-path: url(#clippath-9);
      }

      .st7 {
        clip-path: url(#clippath-10);
      }

      .st8 {
        mask: url(#mask);
      }

      .st9 {
        fill: url(#linear-gradient1);
      }

      .st10 {
        fill: url(#linear-gradient9);
      }

      .st11 {
        clip-path: url(#clippath-11);
      }

      .st12 {
        fill: url(#linear-gradient8);
      }

      .st13 {
        fill: url(#linear-gradient11);
      }

      .st14 {
        fill: none;
      }

      .st15 {
        mask: url(#mask-2);
      }

      .st16 {
        clip-path: url(#clippath-1);
      }

      .st17 {
        isolation: isolate;
      }

      .st18 {
        clip-path: url(#clippath-5);
      }

      .st19 {
        opacity: .33;
      }

      .st20 {
        clip-path: url(#clippath-8);
      }

      .st21 {
        fill: url(#linear-gradient12);
      }

      .st22 {
        clip-path: url(#clippath-3);
      }

      .st23 {
        fill: url(#linear-gradient7);
      }

      .st24 {
        clip-path: url(#clippath-12);
      }

      .st25 {
        fill: url(#linear-gradient4);
      }

      .st26 {
        fill: url(#linear-gradient5);
      }

      .st27 {
        fill: url(#linear-gradient3);
      }

      .st28 {
        fill: #170f37;
      }

      .st29 {
        mix-blend-mode: soft-light;
        opacity: .5;
      }

      .st30 {
        opacity: .6;
      }

      .st31 {
        fill: url(#linear-gradient6);
      }

      .st32 {
        clip-path: url(#clippath-2);
      }

      .st33 {
        mask: url(#mask-4);
      }

      .st34 {
        fill: url(#linear-gradient);
      }

      .st35 {
        clip-path: url(#clippath);
      }

      .st36 {
        mask: url(#mask-3);
      }
    </style>
    <clipPath id="clippath">
      <path class="st14" d="M59.65,277.78v228.42s353.03-55.07,224.32-360.98L59.65,277.78Z"/>
    </clipPath>
    <linearGradient id="linear-gradient" x1="3804.37" y1="2661.45" x2="3806.79" y2="2661.45" gradientTransform="translate(-568707.15 398221.71) scale(149.5 -149.5)" gradientUnits="userSpaceOnUse">
      <stop offset="0" stop-color="#52bea0"/>
      <stop offset="1" stop-color="#3d4498"/>
    </linearGradient>
    <clipPath id="clippath-1">
      <rect class="st14" x="59.64" y="205.79" width="183.18" height="300.41"/>
    </clipPath>
    <clipPath id="clippath-2">
      <path class="st14" d="M242.83,422.13c-74.73,67.14-183.18,84.07-183.18,84.07v-228.42l121.8-71.99c-24.6,102.17,10.65,170.87,61.39,216.34"/>
    </clipPath>
    <linearGradient id="linear-gradient1" x1="3921.21" y1="2611.14" x2="3923.62" y2="2611.14" gradientTransform="translate(197133.54 -130794.79) rotate(-180) scale(50.23 -50.23)" gradientUnits="userSpaceOnUse">
      <stop offset="0" stop-color="#fff"/>
      <stop offset=".02" stop-color="#f7f7f7"/>
      <stop offset=".18" stop-color="#b7b7b7"/>
      <stop offset=".34" stop-color="#7f7f7f"/>
      <stop offset=".49" stop-color="#515151"/>
      <stop offset=".64" stop-color="#2e2e2e"/>
      <stop offset=".78" stop-color="#141414"/>
      <stop offset=".9" stop-color="#050505"/>
      <stop offset="1" stop-color="#000"/>
    </linearGradient>
    <mask id="mask" x="59.64" y="205.79" width="183.18" height="300.41" maskUnits="userSpaceOnUse">
      <rect class="st9" x="59.64" y="205.79" width="183.18" height="300.41"/>
    </mask>
    <linearGradient id="linear-gradient2" x1="3921.21" y1="2611.14" x2="3923.62" y2="2611.14" gradientTransform="translate(197133.54 -130794.79) rotate(-180) scale(50.23 -50.23)" gradientUnits="userSpaceOnUse">
      <stop offset="0" stop-color="#000"/>
      <stop offset="1" stop-color="#000"/>
    </linearGradient>
    <clipPath id="clippath-3">
      <rect class="st14" x="59.69" y="205.79" width="129.49" height="300.41"/>
    </clipPath>
    <clipPath id="clippath-4">
      <path class="st14" d="M59.69,506.2s138.88-109.53,128.98-220.62l-7.19-79.79-121.79,71.99v228.42Z"/>
    </clipPath>
    <linearGradient id="linear-gradient3" x1="3915.61" y1="2683.91" x2="3918.02" y2="2683.91" gradientTransform="translate(210148.55 144270.19) rotate(-180) scale(53.62)" gradientUnits="userSpaceOnUse">
      <stop offset="0" stop-color="#fff"/>
      <stop offset=".12" stop-color="#dcdcdc"/>
      <stop offset=".56" stop-color="#676767"/>
      <stop offset=".86" stop-color="#1c1c1c"/>
      <stop offset="1" stop-color="#000"/>
    </linearGradient>
    <mask id="mask-1" x="59.69" y="205.79" width="138.88" height="300.41" maskUnits="userSpaceOnUse">
      <rect class="st27" x="59.69" y="205.79" width="138.88" height="300.41"/>
    </mask>
    <linearGradient id="linear-gradient4" x1="3915.61" y1="2683.91" x2="3918.02" y2="2683.91" gradientTransform="translate(210148.55 144270.19) rotate(-180) scale(53.62)" gradientUnits="userSpaceOnUse">
      <stop offset="0" stop-color="#fff"/>
      <stop offset="1" stop-color="#fff"/>
    </linearGradient>
    <clipPath id="clippath-5">
      <path class="st14" d="M425.97,506.2v-228.42l-224.32-132.57c-128.71,305.92,224.32,360.98,224.32,360.98"/>
    </clipPath>
    <linearGradient id="linear-gradient5" x2="3806.79" xlink:href="#linear-gradient"/>
    <clipPath id="clippath-6">
      <rect class="st14" x="242.83" y="205.79" width="183.14" height="300.41"/>
    </clipPath>
    <clipPath id="clippath-7">
      <path class="st14" d="M425.97,277.78v228.42s-108.38-16.89-183.14-84.07c50.74-45.56,85.94-114.21,61.35-216.34l121.8,71.99Z"/>
    </clipPath>
    <linearGradient id="linear-gradient6" x1="3746.88" y1="2686.99" x2="3749.3" y2="2686.99" gradientTransform="translate(-184455.07 132852.89) scale(49.31 -49.31)" xlink:href="#linear-gradient1"/>
    <mask id="mask-2" x="242.83" y="205.79" width="183.14" height="300.41" maskUnits="userSpaceOnUse">
      <rect class="st31" x="242.83" y="205.79" width="183.14" height="300.41"/>
    </mask>
    <linearGradient id="linear-gradient7" x1="3746.88" y1="2686.99" x2="3749.3" y2="2686.99" gradientTransform="translate(-184455.07 132852.89) scale(49.31 -49.31)" xlink:href="#linear-gradient2"/>
    <clipPath id="clippath-8">
      <rect class="st14" x="301.69" y="205.8" width="124.28" height="300.41"/>
    </clipPath>
    <clipPath id="clippath-9">
      <path class="st14" d="M425.97,277.8v228.42s-100.14-79.01-124.28-170.87c12.11-35.65,14.81-78.35,2.49-129.5v-.04l121.8,71.99Z"/>
    </clipPath>
    <linearGradient id="linear-gradient8" x1="3750.49" y1="2685.38" x2="3752.9" y2="2685.38" gradientTransform="translate(-192720.32 138561.55) scale(51.47 -51.47)" xlink:href="#linear-gradient3"/>
    <mask id="mask-3" x="301.69" y="205.8" width="124.28" height="300.41" maskUnits="userSpaceOnUse">
      <rect class="st12" x="301.69" y="205.8" width="124.28" height="300.41"/>
    </mask>
    <linearGradient id="linear-gradient9" x1="3750.49" y1="2685.38" x2="3752.9" y2="2685.38" gradientTransform="translate(-192720.32 138561.55) scale(51.47 -51.47)" xlink:href="#linear-gradient4"/>
    <clipPath id="clippath-10">
      <path class="st14" d="M215.19,119.42c0,15.27,12.38,27.65,27.65,27.65s27.65-12.38,27.65-27.65-12.38-27.65-27.65-27.65-27.65,12.38-27.65,27.65"/>
    </clipPath>
    <linearGradient id="linear-gradient10" x1="3804.37" y1="2662.26" x2="3806.79" y2="2662.26" gradientTransform="translate(-568707.15 398136.29) scale(149.5 -149.5)" xlink:href="#linear-gradient"/>
    <clipPath id="clippath-11">
      <rect class="st14" x="201.65" y="145.21" width="82.32" height="276.92"/>
    </clipPath>
    <clipPath id="clippath-12">
      <polygon class="st14" points="201.65 145.21 242.83 422.13 283.97 145.21 242.84 169.52 201.65 145.21"/>
    </clipPath>
    <linearGradient id="linear-gradient11" x1="3706.14" y1="2705.32" x2="3708.56" y2="2705.32" gradientTransform="translate(-126142.14 92508.91) scale(34.09 -34.09)" gradientUnits="userSpaceOnUse">
      <stop offset="0" stop-color="#fff"/>
      <stop offset=".45" stop-color="#868686"/>
      <stop offset=".83" stop-color="#252525"/>
      <stop offset="1" stop-color="#000"/>
    </linearGradient>
    <mask id="mask-4" x="201.65" y="145.21" width="82.32" height="276.92" maskUnits="userSpaceOnUse">
      <rect class="st13" x="201.65" y="145.21" width="82.32" height="276.92"/>
    </mask>
    <linearGradient id="linear-gradient12" x1="3706.14" y1="2705.32" x2="3708.56" y2="2705.32" gradientTransform="translate(-126142.14 92508.91) scale(34.09 -34.09)" gradientUnits="userSpaceOnUse">
      <stop offset="0" stop-color="#fff"/>
      <stop offset="1" stop-color="#fff"/>
    </linearGradient>
  </defs>
  <g class="st17">
    <g id="Layer_1">
      <g>
        <g class="st35">
          <rect class="st34" x="59.65" y="145.21" width="353.03" height="360.98"/>
        </g>
        <g class="st29">
          <g class="st16">
            <g class="st32">
              <g class="st8">
                <rect class="st0" x="59.64" y="205.79" width="183.18" height="300.41"/>
              </g>
            </g>
          </g>
        </g>
        <g class="st30">
          <g class="st22">
            <g class="st3">
              <g class="st5">
                <rect class="st25" x="59.69" y="205.79" width="138.88" height="300.41"/>
              </g>
            </g>
          </g>
        </g>
        <g class="st18">
          <rect class="st26" x="72.94" y="145.21" width="353.03" height="360.98"/>
        </g>
        <g class="st29">
          <g class="st1">
            <g class="st2">
              <g class="st15">
                <rect class="st23" x="242.83" y="205.79" width="183.14" height="300.41"/>
              </g>
            </g>
          </g>
        </g>
        <g class="st30">
          <g class="st20">
            <g class="st6">
              <g class="st36">
                <rect class="st10" x="301.69" y="205.8" width="124.28" height="300.41"/>
              </g>
            </g>
          </g>
        </g>
        <g class="st7">
          <rect class="st4" x="215.19" y="91.77" width="55.3" height="55.3"/>
        </g>
        <g class="st19">
          <g class="st11">
            <g class="st24">
              <g class="st33">
                <rect class="st21" x="201.65" y="145.21" width="82.32" height="276.92"/>
              </g>
            </g>
          </g>
        </g>
        <path class="st28" d="M563.14,314.82h-33.65v-38.67h33.65v38.67ZM562.82,504.75h-33.33v-166.03h33.33v166.03Z"/>
        <path class="st28" d="M702.43,338.72c28.3,0,49.31,6.34,63.05,19.02,13.73,12.69,20.6,30.56,20.6,53.61v93.39h-33.65v-93.39c0-13.2-3.93-23.27-11.79-30.19-7.86-6.92-20.6-10.38-38.21-10.38h-54.4c-2.73,0-4.09,1.57-4.09,4.71v129.24h-33.33v-140.25c0-9.85,1.78-16.61,5.35-20.28,3.56-3.67,9.54-5.5,17.92-5.5h68.55Z"/>
        <path class="st28" d="M924.74,338.72c28.3,0,49.31,6.34,63.05,19.02,13.73,12.69,20.6,30.56,20.6,53.61v93.39h-33.65v-93.39c0-13.2-3.93-23.27-11.79-30.19-7.86-6.92-20.6-10.38-38.21-10.38h-54.4c-2.73,0-4.09,1.57-4.09,4.71v129.24h-33.33v-140.25c0-9.85,1.78-16.61,5.35-20.28,3.56-3.67,9.54-5.5,17.92-5.5h68.55Z"/>
        <path class="st28" d="M1163.41,338.72c19.7,0,33.96,4.45,42.76,13.36,8.8,8.91,13.21,21.44,13.21,37.58,0,15.3-4.3,27.1-12.89,35.38-8.6,8.28-23.06,12.41-43.39,12.41h-78.92v11.96c0,6.71,1.93,12.21,5.82,16.51,3.88,4.3,10.42,6.45,19.65,6.45h101.57v32.39h-101.57c-10.49,0-19.34-1.36-26.57-4.08-7.23-2.72-13.21-6.55-17.92-11.48-4.72-4.92-8.13-10.69-10.22-17.3-2.1-6.6-3.14-13.88-3.14-21.85v-56.6c0-7.75,1.05-14.98,3.14-21.7,2.09-6.71,5.5-12.52,10.22-17.45,4.72-4.92,10.69-8.75,17.92-11.48,7.23-2.72,16.09-4.09,26.57-4.09h53.77ZM1084.17,411.36h77.98c9.01,0,15.35-1.78,19.02-5.35,3.67-3.56,5.51-8.38,5.51-14.46s-1.89-11.32-5.66-15.1c-3.77-3.77-9.75-5.66-17.92-5.66h-53.46c-9.23,0-15.78,2.2-19.65,6.61-3.88,4.4-5.82,9.85-5.82,16.35v17.61Z"/>
        <polygon class="st28" points="1289.81 338.72 1344.84 398.78 1402.07 338.72 1443.58 338.72 1365.59 421.42 1444.52 504.75 1402.07 504.75 1343.58 440.92 1283.84 504.75 1242.33 504.75 1323.14 418.28 1247.67 338.72 1289.81 338.72"/>
        <rect class="st28" x="1470.62" y="387.61" width="9.43" height="11.25"/>
        <path class="st28" d="M1518.6,355.18c2.7,0,5.02.36,6.95,1.07,1.93.72,3.52,1.73,4.76,3.02,1.24,1.3,2.14,2.83,2.69,4.59.55,1.77.83,3.67.83,5.71v20.52c0,1.6-.12,2.95-.37,4.05-.25,1.1-.7,2-1.36,2.69-.66.69-1.59,1.2-2.77,1.53-1.19.33-2.69.5-4.51.5h-20.43c-5.18,0-8.92-1.19-11.21-3.56-2.29-2.37-3.43-5.63-3.43-9.76,0-1.99.26-3.75.78-5.3.52-1.54,1.36-2.85,2.52-3.93,1.16-1.07,2.67-1.9,4.55-2.48,1.87-.58,4.16-.87,6.87-.87h20.77v-3.31c0-1.71-.51-3.14-1.53-4.3-1.02-1.16-2.75-1.74-5.17-1.74h-26.14v-8.44h26.23ZM1522.82,390.34c1.6,0,2.4-.74,2.4-2.23v-8.19h-20.6c-2.32,0-3.94.46-4.88,1.37-.94.91-1.41,2.16-1.41,3.76s.47,2.88,1.41,3.85c.94.96,2.51,1.45,4.72,1.45h18.37Z"/>
        <path class="st28" d="M1555.08,348.89h-8.85v-10.17h8.85v10.17ZM1555,398.87h-8.77v-43.68h8.77v43.68Z"/>
      </g>
    </g>
  </g>
</svg>