<?xml version="1.0" encoding="UTF-8"?>
<svg id="Layer_1" xmlns="http://www.w3.org/2000/svg" version="1.1" viewBox="0 0 595.28 180">
  <!-- Generator: Adobe Illustrator 29.7.1, SVG Export Plug-In . SVG Version: 2.1.1 Build 8)  -->
  <defs>
    <style>
      .st0 {
        fill: #8ec3e9;
      }

      .st1 {
        fill: #184577;
      }
    </style>
  </defs>
  <path class="st1" d="M134.12,90c0,27.26-22.1,49.36-49.36,49.36s-49.36-22.1-49.36-49.36,22.1-49.36,49.36-49.36,49.36,22.1,49.36,49.36"/>
  <path class="st0" d="M84.83,126.29v-11.11c13.88,0,25.18-11.29,25.18-25.18s-11.29-25.18-25.18-25.18v-11.11c20.01,0,36.29,16.28,36.29,36.29s-16.28,36.29-36.29,36.29"/>
  <path class="st0" d="M96.98,90c0,6.75-5.47,12.22-12.22,12.22s-12.22-5.47-12.22-12.22,5.47-12.22,12.22-12.22,12.22,5.47,12.22,12.22"/>
  <polygon class="st1" points="234 65.15 224.7 93.39 224.53 93.39 214.79 65.15 199.27 65.15 217.33 111.37 211.5 125.49 226.76 125.49 249.43 65.15 234 65.15"/>
  <rect class="st1" x="302.45" y="53.46" width="14.56" height="60.37"/>
  <path class="st1" d="M175.46,101.81c-7.1,0-11.58-5.52-11.58-12.37s4.21-12.37,11.23-12.37c5,0,8.77,2.28,10.88,6.84h14.73c-2.54-12.37-13.33-20.43-25.78-20.43-14.47,0-25.7,11.49-25.7,25.87s11.49,26.05,26.05,26.05c12.28,0,22.72-8.16,25.52-20.08h-14.82c-2.19,4.21-5.7,6.49-10.52,6.49"/>
  <path class="st1" d="M272.74,101.81c-7.1,0-11.58-5.52-11.58-12.37s4.21-12.37,11.23-12.37c5,0,8.77,2.28,10.88,6.84h14.73c-2.54-12.37-13.33-20.43-25.78-20.43-14.47,0-25.7,11.49-25.7,25.87s11.49,26.05,26.05,26.05c12.28,0,22.72-8.16,25.52-20.08h-14.82c-2.19,4.21-5.7,6.49-10.52,6.49"/>
  <path class="st1" d="M491.04,101.9c-7.1,0-11.84-5.61-11.84-12.54s5.17-12.28,12.1-12.28,11.93,5.7,11.93,12.37-5.17,12.45-12.19,12.45M504.11,65.85c-3.25-1.49-6.75-2.37-10.26-2.37-5.44,0-10.35,1.49-14.12,5.53v-15.55h-14.56v60.37h13.94v-5.17h.18c2.54,4.74,8.95,6.84,13.94,6.84,15.17,0,24.56-11.67,24.56-26.31,0-10.09-4.3-18.95-13.68-23.33"/>
  <path class="st1" d="M535.41,78.39c0-2.19,2.19-3.24,4.12-3.24,2.54,0,4.47.96,4.56,3.68h14.3c-.96-10.35-8.95-15.35-18.68-15.35s-18.86,5.88-18.86,16.05c0,6.84,5.79,10.61,11.58,12.72,2.1.79,4.21,1.49,6.31,2.19,2.63,1.05,6.58,2.11,6.58,5.61,0,2.54-2.89,3.77-5.09,3.77-2.89,0-5.09-1.49-5.53-4.47h-14.47c1.14,10.7,9.65,16.14,19.82,16.14s19.82-5.61,19.82-16.58c0-17.19-24.47-12.89-24.47-20.52"/>
  <rect class="st1" x="387.54" y="53.46" width="14.56" height="60.37"/>
  <path class="st1" d="M432.77,101.9c-6.84,0-12.1-5.53-12.1-12.28s4.91-12.54,12.01-12.54,12.28,5.26,12.28,12.37-5.09,12.45-12.19,12.45M444.96,70.32h-.18c-2.89-4.82-8.86-6.84-14.21-6.84-14.65,0-24.47,11.75-24.47,25.96s9.47,26.05,24.47,26.05c5.26,0,11.58-1.93,14.21-6.93h.18v5.26h14.56v-48.68h-14.56v5.17Z"/>
  <path class="st1" d="M335.82,84.09c1.14-5.26,5.79-8.33,11.05-8.33s9.91,3.07,11.05,8.33h-22.1ZM346.78,63.48c-14.3,0-25.52,12.02-25.52,26.14s11.58,25.79,25.78,25.79c10.96,0,19.56-7.1,23.77-16.84h-14.91c-2.37,2.98-4.91,4.56-8.86,4.56-5.7,0-10.52-3.42-11.4-9.21h36.48c.26-1.32.35-2.54.35-3.86,0-14.65-10.79-26.58-25.7-26.58"/>
</svg>