<?xml version="1.0" encoding="UTF-8"?>
<svg id="Layer_1" xmlns="http://www.w3.org/2000/svg" version="1.1" viewBox="0 0 426.19 426.19">
  <!-- Generator: Adobe Illustrator 29.6.1, SVG Export Plug-In . SVG Version: 2.1.1 Build 9)  -->
  <defs>
    <style>
      .st0 {
        fill: #69de37;
      }

      .st1 {
        fill: #07093d;
      }
    </style>
  </defs>
  <polygon class="st0" points="138.9 124.1 138.9 183.4 138.9 183.4 79.51 124.02 138.82 124.02 138.9 124.1"/>
  <path class="st1" d="M249.02,115.27c-5.37,5.41-12.82,8.75-21.05,8.75h-89.16l-59.36-59.36v-.02h118.94l50.63,50.63Z"/>
  <path class="st1" d="M338.02,115.33l-20.97-20.97-21.02-21.02s0,0,0,0c-5.37,5.37-8.68,12.79-8.68,20.97v178.24l29.62,29.61.07.07.02.02,29.68,29.68V124.05l-8.72-8.72ZM317.03,183.4v-.12l.12.12h-.12Z"/>
  <path class="st1" d="M248.97,234.17c-4.87,4.87-11.42,8.06-18.71,8.61h-91.33l-.03-.03v96.45c-1.38,5.43-4.26,10.26-8.17,14.03l-41.98-41.98-8.3-8.3v-61.03c.24-15.82,6.67-30.15,16.98-40.65,10.58-10.78,25.23-17.54,41.48-17.78h.09l-.09-.09h0s59.3,0,59.3,0l.08.09,8.7,8.7,41.99,41.99Z"/>
  <path class="st0" d="M287.1,302.17h-29.43s0,0,0,0h-59.38c-8.65,0-16.43,3.7-21.85,9.6l41.95,41.95,7.83,7.83h31.45v-.04h.01s.02.03.02.03h0s59.32,0,59.32,0h0s0,0,0,0h0s29.44,0,29.44,0l-59.38-59.38ZM227.98,331.84v-.03l.02.02h-.02Z"/>
</svg>