<?xml version="1.0" encoding="UTF-8"?>
<svg id="Layer_1" xmlns="http://www.w3.org/2000/svg" version="1.1" viewBox="0 0 2000 707.14">
  <!-- Generator: Adobe Illustrator 29.6.1, SVG Export Plug-In . SVG Version: 2.1.1 Build 9)  -->
  <defs>
    <style>
      .st0 {
        fill: #69de37;
      }

      .st1 {
        fill: #013b23;
      }

      .st2 {
        fill: #07093d;
      }
    </style>
  </defs>
  <polygon class="st0" points="245.65 209.84 245.65 308.76 245.64 308.76 146.58 209.7 245.51 209.7 245.65 209.84"/>
  <path class="st1" d="M429.36,195.1c-8.97,9.02-21.39,14.6-35.11,14.6h-148.74l-99.02-99.02v-.04h198.41l84.46,84.46Z"/>
  <path class="st1" d="M592.31,209.7l-14.49-14.49-34.97-34.97-35.06-35.06s0,0-.02,0c-8.95,8.97-14.47,21.33-14.47,34.98v297.33l49.4,49.4.12.12.03.03,49.51,49.51V209.74l-.05-.05ZM542.81,308.55l.21.21h-.21v-.21Z"/>
  <path class="st1" d="M429.27,393.46c-8.13,8.13-19.06,13.44-31.21,14.36h-152.36l-.05-.05v160.9c-2.3,9.05-7.1,17.11-13.63,23.41l-70.03-70.03-15.51-15.51v-98.72h1.64c.02-26.96,10.83-51.41,28.33-69.24,17.65-17.99,42.1-29.27,69.19-29.66h.15l-.15-.15h0s98.92,0,98.92,0l.14.14,14.51,14.51,70.05,70.04Z"/>
  <path class="st0" d="M492.88,506.9h-49.09v.02l-.02-.02h-99.06c-14.43,0-27.41,6.17-36.46,16.01l69.99,69.99,13.06,13.06h52.48v-.07l.02.02.04.04.02.02h98.96s0,0,0,0h0s49.11,0,49.11,0l-99.06-99.06ZM394.25,556.4v-.06l.02.03-.02.02Z"/>
  <g>
    <path class="st2" d="M729.69,192.18h187.54v49.26h-133.35v52.43h117.52v49.26h-117.52v95.35h-54.19v-246.3Z"/>
    <path class="st2" d="M940.45,345.23v-.7c0-53.83,38.35-98.17,93.24-98.17,62.98,0,91.83,48.91,91.83,102.39,0,4.22-.35,9.15-.7,14.07h-131.24c5.28,24.28,22.17,36.94,46.09,36.94,17.94,0,30.96-5.63,45.74-19.35l30.61,27.09c-17.59,21.81-42.93,35.19-77.06,35.19-56.65,0-98.52-39.76-98.52-97.46ZM1073.45,329.4c-3.17-23.93-17.24-40.11-39.76-40.11s-36.59,15.83-40.81,40.11h80.57Z"/>
    <path class="st2" d="M1141.01,249.88h54.19l30.26,114.35,35.54-115.06h46.09l35.89,115.41,30.96-114.7h53.13l-58.76,190h-48.2l-36.24-115.76-36.95,115.76h-47.85l-58.06-190Z"/>
    <path class="st2" d="M1461.9,181.62h53.48v256.85h-53.48V181.62Z"/>
    <path class="st2" d="M1566.75,181.62h56.3v47.5h-56.3v-47.5ZM1568.16,249.88h53.48v188.59h-53.48v-188.59Z"/>
    <path class="st2" d="M1750.07,379.71l-38,58.76h-55.94l66.15-95.7-63.69-92.89h57.35l35.19,55.24,35.54-55.24h55.94l-63.69,92.19,66.5,96.41h-57.35l-38-58.76Z"/>
  </g>
  <g>
    <path class="st0" d="M717.42,599.67l9.29-11.04c8.41,7.28,16.94,11.42,27.73,11.42,9.54,0,15.56-4.52,15.56-11.04v-.25c0-6.27-3.51-9.66-19.83-13.43-18.7-4.52-29.24-10.04-29.24-26.23v-.25c0-15.06,12.55-25.47,29.99-25.47,12.8,0,22.96,3.89,31.87,11.04l-8.28,11.67c-7.91-5.9-15.81-9.04-23.84-9.04-9.04,0-14.31,4.64-14.31,10.42v.25c0,6.78,4.02,9.79,20.96,13.8,18.57,4.52,28.11,11.17,28.11,25.72v.25c0,16.44-12.93,26.23-31.37,26.23-13.43,0-26.1-4.64-36.64-14.05Z"/>
    <path class="st0" d="M950.2,538.94h-27.98v-14.31h71.4v14.31h-27.98v73.54h-15.44v-73.54Z"/>
    <path class="st0" d="M1135.17,575.2v-50.57h15.43v49.94c0,16.31,8.41,24.97,22.21,24.97s22.09-8.16,22.09-24.35v-50.57h15.43v49.82c0,26.23-14.81,39.4-37.77,39.4s-37.39-13.18-37.39-38.65Z"/>
    <path class="st0" d="M1358.41,524.63h32.75c27.61,0,46.68,18.95,46.68,43.67v.25c0,24.72-19.07,43.92-46.68,43.92h-32.75v-87.84ZM1373.84,538.69v59.73h17.32c18.45,0,30.49-12.42,30.49-29.62v-.25c0-17.19-12.05-29.87-30.49-29.87h-17.32Z"/>
    <path class="st0" d="M1584.29,524.63h15.43v87.84h-15.43v-87.84Z"/>
    <path class="st0" d="M1746.16,568.8v-.25c0-24.72,19.07-45.43,46.05-45.43s45.8,20.45,45.8,45.18v.25c0,24.72-19.07,45.43-46.05,45.43s-45.8-20.45-45.8-45.18ZM1821.83,568.8v-.25c0-17.07-12.42-31.12-29.87-31.12s-29.62,13.8-29.62,30.87v.25c0,17.07,12.42,31.12,29.87,31.12s29.62-13.8,29.62-30.87Z"/>
  </g>
  <g>
    <polygon class="st0" points="245.56 209.75 245.56 308.58 245.55 308.58 146.58 209.61 245.42 209.61 245.56 209.75"/>
    <path class="st2" d="M429.09,195.02c-8.96,9.01-21.37,14.59-35.08,14.59h-148.6l-98.93-98.93v-.04h198.23l84.38,84.38Z"/>
    <path class="st2" d="M577.41,195.13l-34.94-34.94-35.03-35.03s0,0-.01,0c-8.94,8.96-14.47,21.32-14.47,34.95v297.06l49.36,49.35.11.11.03.03,49.47,49.47V209.65l-14.53-14.53ZM542.44,308.58v-.21l.21.21h-.21Z"/>
    <path class="st2" d="M429,393.2c-8.12,8.12-19.03,13.43-31.18,14.35h-152.22l-.05-.05v160.75c-2.3,9.04-7.1,17.09-13.62,23.38l-69.96-69.97-13.84-13.83v-101.71c.39-26.37,11.11-50.25,28.29-67.76,17.63-17.97,42.06-29.24,69.13-29.63h.15l-.15-.15h0s98.83,0,98.83,0l.14.15,14.49,14.5,69.98,69.98Z"/>
    <path class="st0" d="M492.55,506.53h-49.05s-.01,0-.01,0h-98.96c-14.41,0-27.38,6.16-36.42,16l69.92,69.92,13.05,13.05h52.42v-.07h.02s.04.05.04.05h.01s98.87.01,98.87.01h0s0,0,0,0h0s49.06,0,49.06,0l-98.97-98.97ZM394.02,555.98v-.05l.03.03-.03.02Z"/>
  </g>
</svg>