<?xml version="1.0" encoding="UTF-8"?>
<svg id="Layer_1" xmlns="http://www.w3.org/2000/svg" version="1.1" xmlns:xlink="http://www.w3.org/1999/xlink" viewBox="0 0 1106.19 280.41">
  <!-- Generator: Adobe Illustrator 29.7.1, SVG Export Plug-In . SVG Version: 2.1.1 Build 8)  -->
  <defs>
    <style>
      .st0 {
        fill: url(#linear-gradient2);
      }

      .st1 {
        fill: #1c1d1e;
      }

      .st2 {
        fill: url(#linear-gradient1);
      }

      .st2, .st3 {
        opacity: .26;
      }

      .st4 {
        fill: none;
      }

      .st3 {
        fill: #26c3b4;
      }

      .st5 {
        fill: #fd6186;
      }

      .st6 {
        fill: #ff7282;
      }

      .st7 {
        fill: url(#linear-gradient4);
      }

      .st8 {
        fill: #fd3849;
      }

      .st9 {
        fill: url(#linear-gradient3);
      }

      .st10 {
        fill: url(#linear-gradient);
      }
    </style>
    <clipPath id="clippath">
      <path class="st4" d="M986.78,128.74c2.63,9.52,2.61,19.14.39,28.09-3.82,15.43-14.19,28.84-28.83,36.23-.42.21-.84.39-1.27.54-1.67.6-3.42.78-5.11.57-.98-.12-1.93-.37-2.84-.74-2.15-.87-4.03-2.42-5.31-4.55-.53-.88-.92-1.81-1.18-2.75-.95-3.45-.19-7.22,2.18-10.07,4.17-5.05,6.2-11.73,5.25-18.53.05,0,.11,0,.17,0-.25-.96-.43-1.53-.45-1.59h0c-.18-.88-.42-1.75-.7-2.63-1.33-4.02-3.66-7.48-6.64-10.17-5.61-5.06-13.51-7.38-21.29-5.62-11.43,2.6-18.93,12.86-18.62,23.95,0,0,0,.05,0,.14,0,.05,0,.12,0,.2,0,.04,0,.08,0,.13.08,1.73.36,3.49.84,5.23,2.94,10.64,12.64,17.61,23.18,17.53,3.4-.02,6.31,2.44,6.86,5.8.6,3.63-1.71,6.93-4.98,7.83-.86.24-1.79.31-2.75.18-2.5-.35-4.96-.86-7.37-1.54,0,0,0,0,0,0-18.11-5.08-33.19-19.24-38.57-38.7-7.68-27.81,7.22-56.52,33.63-66.61h0c1.66-.64,3.36-1.2,5.11-1.68,14.27-3.94,28.77-1.93,40.88,4.52,8.82,4.7,16.37,11.76,21.62,20.61,2.47,4.16,4.44,8.72,5.79,13.61Z"/>
    </clipPath>
    <clipPath id="clippath-1">
      <path class="st4" d="M902.52,161.64c0,.05,0,.12,0,.2,0-.08,0-.15,0-.2Z"/>
    </clipPath>
    <linearGradient id="linear-gradient" x1="2170.78" y1="-268.5" x2="2202.81" y2="-268.5" gradientTransform="translate(-1078.3 948.95) rotate(-15.44)" gradientUnits="userSpaceOnUse">
      <stop offset="0" stop-color="#1c1f23"/>
      <stop offset=".84" stop-color="#1c1f23" stop-opacity=".18"/>
      <stop offset="1" stop-color="#1c1f23" stop-opacity="0"/>
    </linearGradient>
    <linearGradient id="linear-gradient1" x1="2124.83" y1="-213.51" x2="2134.1" y2="-191.94" gradientTransform="translate(-1078.3 948.95) rotate(-15.44)" gradientUnits="userSpaceOnUse">
      <stop offset="0" stop-color="#1c1f23"/>
      <stop offset=".38" stop-color="#2a2025" stop-opacity=".91"/>
      <stop offset=".67" stop-color="#57252d" stop-opacity=".63"/>
      <stop offset=".93" stop-color="#a32e3a" stop-opacity=".16"/>
      <stop offset="1" stop-color="#be313f" stop-opacity="0"/>
    </linearGradient>
    <linearGradient id="linear-gradient2" x1="2175.13" y1="-231.86" x2="2148.93" y2="-194.31" gradientTransform="translate(-1078.3 948.95) rotate(-15.44)" gradientUnits="userSpaceOnUse">
      <stop offset="0" stop-color="#e73265" stop-opacity="0"/>
      <stop offset=".15" stop-color="#e43167" stop-opacity=".12"/>
      <stop offset=".47" stop-color="#dc2f6f" stop-opacity=".43"/>
      <stop offset=".93" stop-color="#d02d7b" stop-opacity=".92"/>
      <stop offset="1" stop-color="#cf2d7e"/>
    </linearGradient>
    <linearGradient id="linear-gradient3" x1="2193.43" y1="-232.31" x2="2162.56" y2="-191.75" gradientTransform="translate(-1078.3 948.95) rotate(-15.44)" gradientUnits="userSpaceOnUse">
      <stop offset="0" stop-color="#e73265" stop-opacity="0"/>
      <stop offset=".27" stop-color="#d42d72" stop-opacity=".25"/>
      <stop offset=".87" stop-color="#a52395" stop-opacity=".87"/>
      <stop offset="1" stop-color="#9b219d"/>
    </linearGradient>
    <linearGradient id="linear-gradient4" x1="2176.36" y1="-189.23" x2="2195.41" y2="-223.03" gradientTransform="translate(-1078.3 948.95) rotate(-15.44)" gradientUnits="userSpaceOnUse">
      <stop offset="0" stop-color="#97198b"/>
      <stop offset=".13" stop-color="#9a1a8a" stop-opacity=".94"/>
      <stop offset=".33" stop-color="#a31d88" stop-opacity=".77"/>
      <stop offset=".6" stop-color="#b32384" stop-opacity=".5"/>
      <stop offset=".91" stop-color="#c82a7f" stop-opacity=".12"/>
      <stop offset="1" stop-color="#cf2d7e" stop-opacity="0"/>
    </linearGradient>
    <clipPath id="clippath-2">
      <path class="st4" d="M925.17,155.69s-.1-.1-.16-.16c-.92-.91-1.99-1.53-3.29-1.69-1.07-.13-2.09.06-3.07.47-1.91.79-3.08,2.19-3.41,4.24-.31,1.97.27,3.7,1.47,5.25,1.13,1.46,2.56,2.57,4.09,3.56,1.92,1.25,3.96,2.26,6.04,3.21.92.42,1.86.83,2.79,1.24.05-.05.08-.08.11-.12,1.64-2.13,3.18-4.32,4.48-6.68.95-1.74,1.77-3.54,2.21-5.49.36-1.62.46-3.25-.16-4.84-.51-1.31-1.36-2.33-2.62-2.97-1.33-.67-2.73-.75-4.16-.45-1.75.36-3.02,1.35-3.77,2.97-.21.46-.35.96-.53,1.45Z"/>
    </clipPath>
    <clipPath id="clippath-3">
      <path class="st4" d="M925.17,155.69c.18-.5.32-.99.53-1.45.75-1.62,2.01-2.61,3.77-2.97,1.44-.29,2.84-.22,4.16.45,1.26.64,2.11,1.66,2.62,2.97.62,1.59.53,3.21.16,4.84-.44,1.95-1.25,3.75-2.21,5.49-1.29,2.36-2.83,4.56-4.48,6.68-.03.04-.06.07-.11.12-.93-.41-1.86-.82-2.79-1.24-2.08-.95-4.12-1.97-6.04-3.21-1.53-.99-2.97-2.1-4.09-3.56-1.2-1.55-1.78-3.28-1.47-5.25.33-2.05,1.51-3.45,3.41-4.24.98-.41,2.01-.6,3.07-.47,1.3.16,2.38.77,3.29,1.69.06.06.11.11.16.16Z"/>
    </clipPath>
    <clipPath id="clippath-4">
      <path class="st4" d="M894.35,201.12l-11.19,11.11c.32.32,21.9,21.61,51.6,21.61,14.88,0,31.82-5.35,49.12-21.37l-10.71-11.58c-40.53,37.51-77.27,1.76-78.81.22Z"/>
    </clipPath>
  </defs>
  <g>
    <path class="st1" d="M54.43,68.84h12.23v51.32h62.3v-51.32h12.23v122.36h-12.23v-59.06h-62.3v59.06h-12.23v-122.36Z"/>
    <path class="st1" d="M238.59,161.17l9.81,5.16c-3.22,6.32-6.94,11.42-11.16,15.31-4.22,3.88-8.96,6.83-14.24,8.86-5.27,2.02-11.24,3.04-17.9,3.04-14.76,0-26.31-4.84-34.63-14.51-8.33-9.68-12.49-20.61-12.49-32.81,0-11.48,3.52-21.71,10.57-30.69,8.94-11.42,20.9-17.13,35.88-17.13s27.75,5.85,36.96,17.55c6.55,8.26,9.88,18.58,9.99,30.94h-81.43c.22,10.51,3.58,19.13,10.08,25.85,6.5,6.72,14.52,10.08,24.07,10.08,4.61,0,9.09-.8,13.45-2.4,4.36-1.6,8.06-3.73,11.12-6.38,3.05-2.65,6.36-6.93,9.91-12.84ZM238.59,136.8c-1.55-6.21-3.82-11.17-6.79-14.89-2.97-3.71-6.9-6.71-11.78-8.98-4.89-2.27-10.02-3.41-15.41-3.41-8.88,0-16.52,2.86-22.9,8.57-4.66,4.16-8.19,10.4-10.58,18.72h67.46Z"/>
    <path class="st1" d="M356.63,100.7v90.5h-11.48v-15.55c-4.88,5.93-10.36,10.4-16.43,13.39-6.07,3-12.71,4.49-19.92,4.49-12.81,0-23.75-4.64-32.81-13.93-9.07-9.29-13.6-20.59-13.6-33.9s4.57-24.18,13.72-33.44c9.15-9.26,20.16-13.89,33.02-13.89,7.43,0,14.15,1.58,20.17,4.74,6.02,3.16,11.3,7.9,15.85,14.22v-16.64h11.48ZM310.1,109.6c-6.48,0-12.46,1.59-17.95,4.78-5.48,3.19-9.85,7.66-13.09,13.42-3.24,5.76-4.86,11.85-4.86,18.28s1.63,12.46,4.9,18.28c3.27,5.82,7.66,10.34,13.17,13.58,5.51,3.24,11.42,4.86,17.74,4.86s12.41-1.61,18.11-4.82c5.7-3.21,10.09-7.56,13.17-13.04,3.07-5.48,4.61-11.66,4.61-18.53,0-10.47-3.45-19.22-10.34-26.25-6.9-7.03-15.38-10.55-25.46-10.55Z"/>
    <path class="st1" d="M374.45,65.76h11.65v125.43h-11.65v-125.43Z"/>
    <path class="st1" d="M413.8,67.09h11.65v33.6h18.47v10.06h-18.47v80.43h-11.65v-80.43h-15.89v-10.06h15.89v-33.6Z"/>
    <path class="st1" d="M454.73,65.76h11.65v51.15c4.71-6.21,9.9-10.85,15.55-13.93,5.66-3.08,11.78-4.62,18.38-4.62s12.77,1.72,18.01,5.16c5.24,3.44,9.11,8.06,11.6,13.85,2.5,5.79,3.74,14.88,3.74,27.24v46.58h-11.65v-43.17c0-10.42-.42-17.38-1.25-20.88-1.44-5.99-4.06-10.49-7.86-13.52-3.8-3.02-8.77-4.53-14.93-4.53-7.04,0-13.35,2.33-18.92,6.99-5.57,4.66-9.25,10.43-11.02,17.3-1.11,4.44-1.66,12.64-1.66,24.62v33.19h-11.65v-125.43Z"/>
    <path class="st1" d="M542.25,100.7h12.31l31.1,69.69,30.2-69.69h12.39l-53.98,123.6h-12.3l17.42-39.96-37.15-83.64Z"/>
    <path class="st8" d="M678.1,68.84h23.62v46.16h40.84v-46.16h23.54v122.36h-23.54v-53.65h-40.84v53.65h-23.62v-122.36Z"/>
    <path class="st8" d="M784.83,100.7h22.96v43.58c0,8.48.58,14.38,1.75,17.68,1.17,3.3,3.04,5.86,5.63,7.69,2.58,1.83,5.77,2.74,9.55,2.74s6.99-.9,9.63-2.7c2.64-1.8,4.6-4.45,5.88-7.94.95-2.61,1.42-8.18,1.42-16.72v-44.33h22.71v38.34c0,15.8-1.25,26.62-3.74,32.44-3.05,7.1-7.54,12.55-13.48,16.34-5.93,3.8-13.47,5.7-22.62,5.7-9.93,0-17.95-2.22-24.08-6.65-6.13-4.44-10.44-10.62-12.93-18.55-1.77-5.49-2.66-15.47-2.66-29.94v-37.68Z"/>
    <path class="st8" d="M1058.94,113.34l-14.06,14.06c-5.71-5.66-10.9-8.48-15.55-8.48-2.55,0-4.55.54-5.99,1.62-1.44,1.08-2.16,2.43-2.16,4.03,0,1.22.46,2.34,1.37,3.37.92,1.03,3.17,2.43,6.78,4.2l8.32,4.16c8.76,4.33,14.78,8.73,18.05,13.23,3.27,4.49,4.91,9.76,4.91,15.8,0,8.04-2.95,14.75-8.86,20.13-5.91,5.38-13.82,8.07-23.75,8.07-13.2,0-23.73-5.16-31.61-15.47l13.97-15.22c2.66,3.11,5.78,5.61,9.36,7.53,3.58,1.91,6.75,2.87,9.52,2.87,2.99,0,5.41-.72,7.24-2.16,1.83-1.44,2.75-3.1,2.75-4.99,0-3.49-3.3-6.9-9.9-10.23l-7.65-3.83c-14.64-7.37-21.96-16.61-21.96-27.7,0-7.15,2.76-13.27,8.28-18.34,5.52-5.07,12.57-7.61,21.17-7.61,5.88,0,11.41,1.29,16.59,3.87,5.18,2.58,9.58,6.28,13.18,11.1Z"/>
  </g>
  <g>
    <path class="st3" d="M950.22,157.54c-.05,0-.11,0-.17,0-.07-.53-.17-1.06-.28-1.59.02.06.19.62.45,1.59Z"/>
    <path class="st4" d="M976.41,156.16s-.08.32-.24.9"/>
    <path class="st10" d="M974.18,105.99c-12.74,11.33-22.4,16.36-28.1,18.57,10.88-4.94,16.85-17.2,13.57-29.08-.09-.32-.19-.64-.28-.96,5.52,2.94,10.54,6.81,14.81,11.46Z"/>
    <circle class="st8" cx="935.81" cy="102.06" r="24.73"/>
    <path class="st2" d="M933.42,190.54c.6,3.63-1.71,6.93-4.98,7.83-.86.24-1.79.31-2.75.18-2.5-.35-4.96-.86-7.37-1.54,0,0,0,0,0,0-14.43-12.7-15.68-32.36-15.78-35.16.08,1.78.35,3.57.85,5.36,2.94,10.64,12.64,17.61,23.18,17.53,3.4-.02,6.31,2.44,6.86,5.8Z"/>
    <path class="st0" d="M958.79,131.29l-16.31,11.86c2.98,2.69,5.31,6.14,6.64,10.17.29.87.52,1.75.7,2.62h0c.02.06.19.63.45,1.59,1.42,5.39,5.35,23.3-1.1,35.9.91.37,1.87.62,2.84.74,9.33-10.96,11.73-24.64,11.35-36.88-.32-10.71-2.78-20.32-4.57-26Z"/>
    <path class="st6" d="M950.26,157.52c1.42,5.39,5.35,23.3-1.1,35.9-2.15-.87-4.03-2.42-5.31-4.55-.53-.88-.92-1.81-1.18-2.75-.95-3.45-.19-7.22,2.18-10.07,4.17-5.05,6.2-11.73,5.25-18.53.05,0,.11,0,.17,0Z"/>
    <path class="st5" d="M950.26,157.52c-.05,0-.11,0-.17,0-.07-.53-.17-1.06-.28-1.59.02.06.19.62.45,1.59Z"/>
    <path class="st9" d="M981.04,115.12l-22.24,16.17c1.79,5.69,4.25,15.29,4.57,26,.38,12.23-2.02,25.92-11.35,36.88,1.69.21,3.44.03,5.11-.57,11.6-11.34,17.83-32.01,19.09-36.55,3.87-.08,7.62-.15,11-.22,2.22-8.95,2.24-18.58-.39-28.09-1.35-4.89-3.32-9.45-5.79-13.61Z"/>
    <path class="st7" d="M987.22,156.82c-3.82,15.43-14.19,28.84-28.83,36.23-.42.21-.84.39-1.27.54,11.6-11.34,17.83-32.01,19.09-36.55,3.87-.08,7.62-.15,11-.22Z"/>
    <path class="st5" d="M976.46,156.15s-.08.32-.24.9"/>
  </g>
</svg>